<mxfile host="Electron" agent="Mozilla/5.0 (X11; Linux x86_64) AppleWebKit/537.36 (KHTML, like Gecko) draw.io/26.0.16 Chrome/132.0.6834.196 Electron/34.2.0 Safari/537.36" version="26.0.16">
  <diagram name="Page-1" id="6ShXn8bWX5ViflYGPpYK">
    <mxGraphModel dx="782" dy="547" grid="1" gridSize="10" guides="1" tooltips="1" connect="1" arrows="1" fold="1" page="1" pageScale="1" pageWidth="827" pageHeight="1169" math="0" shadow="0">
      <root>
        <mxCell id="0" />
        <mxCell id="1" parent="0" />
        <mxCell id="oXTzVpbmEas0PoUD19BF-1" value="" style="verticalLabelPosition=bottom;verticalAlign=top;html=1;shape=mxgraph.basic.patternFillRect;fillStyle=grid;step=5;fillStrokeWidth=0.2;fillStrokeColor=#dddddd;strokeWidth=1;" vertex="1" parent="1">
          <mxGeometry x="80" y="40" width="160" height="160" as="geometry" />
        </mxCell>
        <mxCell id="oXTzVpbmEas0PoUD19BF-2" value="&lt;font face=&quot;Courier New&quot;&gt;for i in 0 to 16&lt;/font&gt;&lt;div&gt;&lt;font face=&quot;Courier New&quot;&gt;&amp;nbsp; for j in 0 to 32&lt;/font&gt;&lt;/div&gt;&lt;div&gt;&lt;font face=&quot;Courier New&quot;&gt;&amp;nbsp; &amp;nbsp; &lt;font style=&quot;color: rgb(0, 0, 255);&quot;&gt;&lt;b&gt;A[i][j] = 1&lt;/b&gt;&lt;/font&gt;&lt;/font&gt;&lt;/div&gt;" style="text;html=1;align=left;verticalAlign=middle;whiteSpace=wrap;rounded=0;" vertex="1" parent="1">
          <mxGeometry x="260" y="40" width="160" height="160" as="geometry" />
        </mxCell>
        <mxCell id="oXTzVpbmEas0PoUD19BF-4" value="" style="verticalLabelPosition=bottom;verticalAlign=top;html=1;shape=mxgraph.basic.patternFillRect;fillStyle=grid;step=5;fillStrokeWidth=0.2;fillStrokeColor=#dddddd;strokeWidth=0;strokeColor=none;fillColor=#dae8fc;" vertex="1" parent="1">
          <mxGeometry x="80" y="40" width="159" height="80" as="geometry" />
        </mxCell>
        <mxCell id="oXTzVpbmEas0PoUD19BF-6" value="" style="verticalLabelPosition=bottom;verticalAlign=top;html=1;shape=mxgraph.basic.patternFillRect;fillStyle=grid;step=5;fillStrokeWidth=0.2;fillStrokeColor=#dddddd;strokeWidth=1;" vertex="1" parent="1">
          <mxGeometry x="80" y="240" width="160" height="160" as="geometry" />
        </mxCell>
        <mxCell id="oXTzVpbmEas0PoUD19BF-7" value="&lt;font face=&quot;Courier New&quot;&gt;for i in 0 to 32&lt;/font&gt;&lt;div&gt;&lt;font face=&quot;Courier New&quot;&gt;&amp;nbsp; for j in 16 to 32&lt;/font&gt;&lt;/div&gt;&lt;div&gt;&lt;font face=&quot;Courier New&quot;&gt;&amp;nbsp; &amp;nbsp; &lt;font style=&quot;color: rgb(255, 0, 0);&quot;&gt;&lt;b style=&quot;&quot;&gt;A[i][j] = 0&lt;/b&gt;&lt;/font&gt;&lt;/font&gt;&lt;/div&gt;" style="text;html=1;align=left;verticalAlign=middle;whiteSpace=wrap;rounded=0;" vertex="1" parent="1">
          <mxGeometry x="260" y="240" width="160" height="160" as="geometry" />
        </mxCell>
        <mxCell id="oXTzVpbmEas0PoUD19BF-8" value="" style="verticalLabelPosition=bottom;verticalAlign=top;html=1;shape=mxgraph.basic.patternFillRect;fillStyle=grid;step=5;fillStrokeWidth=0.2;fillStrokeColor=#dddddd;strokeWidth=0;strokeColor=#b85450;fillColor=#f8cecc;" vertex="1" parent="1">
          <mxGeometry x="160" y="240" width="79" height="160" as="geometry" />
        </mxCell>
        <mxCell id="oXTzVpbmEas0PoUD19BF-10" value="&lt;font face=&quot;Courier New&quot;&gt;i&lt;/font&gt;" style="text;html=1;align=center;verticalAlign=middle;whiteSpace=wrap;rounded=0;" vertex="1" parent="1">
          <mxGeometry x="40" y="305" width="40" height="30" as="geometry" />
        </mxCell>
        <mxCell id="oXTzVpbmEas0PoUD19BF-11" value="&lt;font face=&quot;Courier New&quot;&gt;j&lt;/font&gt;" style="text;html=1;align=center;verticalAlign=middle;whiteSpace=wrap;rounded=0;" vertex="1" parent="1">
          <mxGeometry x="140" y="400" width="40" height="30" as="geometry" />
        </mxCell>
        <mxCell id="oXTzVpbmEas0PoUD19BF-12" value="&lt;font face=&quot;Courier New&quot;&gt;j&lt;/font&gt;" style="text;html=1;align=center;verticalAlign=middle;whiteSpace=wrap;rounded=0;" vertex="1" parent="1">
          <mxGeometry x="140" y="200" width="40" height="30" as="geometry" />
        </mxCell>
        <mxCell id="oXTzVpbmEas0PoUD19BF-13" value="&lt;font face=&quot;Courier New&quot;&gt;i&lt;/font&gt;" style="text;html=1;align=center;verticalAlign=middle;whiteSpace=wrap;rounded=0;" vertex="1" parent="1">
          <mxGeometry x="40" y="105" width="40" height="30" as="geometry" />
        </mxCell>
        <mxCell id="oXTzVpbmEas0PoUD19BF-14" value="" style="verticalLabelPosition=bottom;verticalAlign=top;html=1;shape=mxgraph.basic.patternFillRect;fillStyle=grid;step=5;fillStrokeWidth=0.2;fillStrokeColor=#dddddd;strokeWidth=1;" vertex="1" parent="1">
          <mxGeometry x="80" y="440" width="160" height="160" as="geometry" />
        </mxCell>
        <mxCell id="oXTzVpbmEas0PoUD19BF-15" value="&lt;font face=&quot;Courier New&quot;&gt;for i in 16 to 32&lt;/font&gt;&lt;div&gt;&lt;font face=&quot;Courier New&quot;&gt;&amp;nbsp; for j in 0 to 32&lt;/font&gt;&lt;/div&gt;&lt;div&gt;&lt;font face=&quot;Courier New&quot;&gt;&amp;nbsp; &amp;nbsp; &lt;font style=&quot;color: rgb(0, 255, 0);&quot;&gt;&lt;b style=&quot;&quot;&gt;A[i][j] = -1&lt;/b&gt;&lt;/font&gt;&lt;/font&gt;&lt;/div&gt;" style="text;html=1;align=left;verticalAlign=middle;whiteSpace=wrap;rounded=0;" vertex="1" parent="1">
          <mxGeometry x="260" y="440" width="160" height="160" as="geometry" />
        </mxCell>
        <mxCell id="oXTzVpbmEas0PoUD19BF-16" value="" style="verticalLabelPosition=bottom;verticalAlign=top;html=1;shape=mxgraph.basic.patternFillRect;fillStyle=grid;step=5;fillStrokeWidth=0.2;fillStrokeColor=#dddddd;strokeWidth=0;strokeColor=#82b366;fillColor=#d5e8d4;" vertex="1" parent="1">
          <mxGeometry x="80" y="520" width="159" height="80" as="geometry" />
        </mxCell>
        <mxCell id="oXTzVpbmEas0PoUD19BF-17" value="&lt;font face=&quot;Courier New&quot;&gt;i&lt;/font&gt;" style="text;html=1;align=center;verticalAlign=middle;whiteSpace=wrap;rounded=0;" vertex="1" parent="1">
          <mxGeometry x="40" y="505" width="40" height="30" as="geometry" />
        </mxCell>
        <mxCell id="oXTzVpbmEas0PoUD19BF-18" value="&lt;font face=&quot;Courier New&quot;&gt;j&lt;/font&gt;" style="text;html=1;align=center;verticalAlign=middle;whiteSpace=wrap;rounded=0;" vertex="1" parent="1">
          <mxGeometry x="140" y="600" width="40" height="30" as="geometry" />
        </mxCell>
        <mxCell id="oXTzVpbmEas0PoUD19BF-19" value="" style="verticalLabelPosition=bottom;verticalAlign=top;html=1;shape=mxgraph.basic.patternFillRect;fillStyle=grid;step=5;fillStrokeWidth=0.2;fillStrokeColor=#dddddd;strokeWidth=1;" vertex="1" parent="1">
          <mxGeometry x="80" y="640" width="160" height="160" as="geometry" />
        </mxCell>
        <mxCell id="oXTzVpbmEas0PoUD19BF-20" value="&lt;div&gt;&lt;font face=&quot;Courier New&quot;&gt;for i in 0 to 16&lt;/font&gt;&lt;div&gt;&lt;font face=&quot;Courier New&quot;&gt;&amp;nbsp; for j in 0 to 32&lt;/font&gt;&lt;/div&gt;&lt;div&gt;&lt;font face=&quot;Courier New&quot;&gt;&amp;nbsp; &amp;nbsp;&amp;nbsp;&lt;font style=&quot;color: rgb(0, 0, 255);&quot;&gt;&lt;b&gt;A[i][j] = 1&lt;/b&gt;&lt;/font&gt;&lt;/font&gt;&lt;/div&gt;&lt;/div&gt;&lt;font face=&quot;Courier New&quot;&gt;&lt;div&gt;&lt;font face=&quot;Courier New&quot;&gt;for i in 0 to 32&lt;/font&gt;&lt;div style=&quot;font-family: Helvetica;&quot;&gt;&lt;font face=&quot;Courier New&quot;&gt;&amp;nbsp; for j in 16 to 32&lt;/font&gt;&lt;/div&gt;&lt;div style=&quot;font-family: Helvetica;&quot;&gt;&lt;font face=&quot;Courier New&quot;&gt;&amp;nbsp; &amp;nbsp;&amp;nbsp;&lt;font style=&quot;color: rgb(255, 0, 0);&quot;&gt;&lt;b&gt;A[i][j] = 0&lt;/b&gt;&lt;/font&gt;&lt;/font&gt;&lt;/div&gt;&lt;/div&gt;for i in 16 to 32&lt;/font&gt;&lt;div&gt;&lt;font face=&quot;Courier New&quot;&gt;&amp;nbsp; for j in 0 to 32&lt;/font&gt;&lt;/div&gt;&lt;div&gt;&lt;font face=&quot;Courier New&quot;&gt;&amp;nbsp; &amp;nbsp; &lt;font style=&quot;color: rgb(0, 255, 0);&quot;&gt;&lt;b style=&quot;&quot;&gt;A[i][j] = -1&lt;/b&gt;&lt;/font&gt;&lt;/font&gt;&lt;/div&gt;" style="text;html=1;align=left;verticalAlign=middle;whiteSpace=wrap;rounded=0;" vertex="1" parent="1">
          <mxGeometry x="260" y="640" width="160" height="160" as="geometry" />
        </mxCell>
        <mxCell id="oXTzVpbmEas0PoUD19BF-21" value="" style="verticalLabelPosition=bottom;verticalAlign=top;html=1;shape=mxgraph.basic.patternFillRect;fillStyle=grid;step=5;fillStrokeWidth=0.2;fillStrokeColor=#dddddd;strokeWidth=0;strokeColor=#82b366;fillColor=#d5e8d4;" vertex="1" parent="1">
          <mxGeometry x="80" y="720" width="159" height="80" as="geometry" />
        </mxCell>
        <mxCell id="oXTzVpbmEas0PoUD19BF-22" value="&lt;font face=&quot;Courier New&quot;&gt;i&lt;/font&gt;" style="text;html=1;align=center;verticalAlign=middle;whiteSpace=wrap;rounded=0;" vertex="1" parent="1">
          <mxGeometry x="40" y="705" width="40" height="30" as="geometry" />
        </mxCell>
        <mxCell id="oXTzVpbmEas0PoUD19BF-23" value="&lt;font face=&quot;Courier New&quot;&gt;j&lt;/font&gt;" style="text;html=1;align=center;verticalAlign=middle;whiteSpace=wrap;rounded=0;" vertex="1" parent="1">
          <mxGeometry x="140" y="800" width="40" height="30" as="geometry" />
        </mxCell>
        <mxCell id="oXTzVpbmEas0PoUD19BF-24" value="" style="verticalLabelPosition=bottom;verticalAlign=top;html=1;shape=mxgraph.basic.patternFillRect;fillStyle=grid;step=5;fillStrokeWidth=0.2;fillStrokeColor=#dddddd;strokeWidth=0;strokeColor=#b85450;fillColor=#f8cecc;" vertex="1" parent="1">
          <mxGeometry x="160" y="640" width="80" height="80" as="geometry" />
        </mxCell>
        <mxCell id="oXTzVpbmEas0PoUD19BF-25" value="" style="verticalLabelPosition=bottom;verticalAlign=top;html=1;shape=mxgraph.basic.patternFillRect;fillStyle=grid;step=5;fillStrokeWidth=0.2;fillStrokeColor=#dddddd;strokeWidth=0;strokeColor=none;fillColor=#dae8fc;" vertex="1" parent="1">
          <mxGeometry x="80" y="640" width="80" height="80" as="geometry" />
        </mxCell>
        <mxCell id="oXTzVpbmEas0PoUD19BF-26" value="" style="shape=flexArrow;endArrow=classic;html=1;rounded=0;" edge="1" parent="1">
          <mxGeometry width="50" height="50" relative="1" as="geometry">
            <mxPoint x="200" y="820" as="sourcePoint" />
            <mxPoint x="200" y="900" as="targetPoint" />
          </mxGeometry>
        </mxCell>
        <mxCell id="oXTzVpbmEas0PoUD19BF-27" value="Using Affine Analysis" style="text;html=1;align=center;verticalAlign=middle;whiteSpace=wrap;rounded=0;" vertex="1" parent="1">
          <mxGeometry x="220" y="840" width="140" height="40" as="geometry" />
        </mxCell>
        <mxCell id="oXTzVpbmEas0PoUD19BF-28" value="" style="verticalLabelPosition=bottom;verticalAlign=top;html=1;shape=mxgraph.basic.patternFillRect;fillStyle=grid;step=5;fillStrokeWidth=0.2;fillStrokeColor=#dddddd;strokeWidth=1;" vertex="1" parent="1">
          <mxGeometry x="80" y="920" width="160" height="160" as="geometry" />
        </mxCell>
        <mxCell id="oXTzVpbmEas0PoUD19BF-29" value="&lt;div&gt;&lt;font face=&quot;Courier New&quot;&gt;for i in 0 to 16&lt;/font&gt;&lt;div&gt;&lt;font face=&quot;Courier New&quot;&gt;&amp;nbsp; for j in 0 to &lt;b&gt;&lt;font style=&quot;color: rgb(255, 0, 255);&quot;&gt;16&lt;/font&gt;&lt;/b&gt;&lt;/font&gt;&lt;/div&gt;&lt;div&gt;&lt;font face=&quot;Courier New&quot;&gt;&amp;nbsp; &amp;nbsp;&amp;nbsp;&lt;font style=&quot;color: rgb(0, 0, 255);&quot;&gt;&lt;b&gt;A[i][j] = 1&lt;/b&gt;&lt;/font&gt;&lt;/font&gt;&lt;/div&gt;&lt;/div&gt;&lt;font face=&quot;Courier New&quot;&gt;&lt;div&gt;&lt;font face=&quot;Courier New&quot;&gt;for i in 0 to &lt;b&gt;&lt;font style=&quot;color: rgb(255, 0, 255);&quot;&gt;16&lt;/font&gt;&lt;/b&gt;&lt;/font&gt;&lt;div style=&quot;font-family: Helvetica;&quot;&gt;&lt;font face=&quot;Courier New&quot;&gt;&amp;nbsp; for j in 16 to 32&lt;/font&gt;&lt;/div&gt;&lt;div style=&quot;font-family: Helvetica;&quot;&gt;&lt;font face=&quot;Courier New&quot;&gt;&amp;nbsp; &amp;nbsp;&amp;nbsp;&lt;font style=&quot;color: rgb(255, 0, 0);&quot;&gt;&lt;b&gt;A[i][j] = 0&lt;/b&gt;&lt;/font&gt;&lt;/font&gt;&lt;/div&gt;&lt;/div&gt;for i in 16 to 32&lt;/font&gt;&lt;div&gt;&lt;font face=&quot;Courier New&quot;&gt;&amp;nbsp; for j in 0 to 32&lt;/font&gt;&lt;/div&gt;&lt;div&gt;&lt;font face=&quot;Courier New&quot;&gt;&amp;nbsp; &amp;nbsp; &lt;font style=&quot;color: rgb(0, 255, 0);&quot;&gt;&lt;b style=&quot;&quot;&gt;A[i][j] = -1&lt;/b&gt;&lt;/font&gt;&lt;/font&gt;&lt;/div&gt;" style="text;html=1;align=left;verticalAlign=middle;whiteSpace=wrap;rounded=0;" vertex="1" parent="1">
          <mxGeometry x="260" y="920" width="160" height="160" as="geometry" />
        </mxCell>
        <mxCell id="oXTzVpbmEas0PoUD19BF-30" value="" style="verticalLabelPosition=bottom;verticalAlign=top;html=1;shape=mxgraph.basic.patternFillRect;fillStyle=grid;step=5;fillStrokeWidth=0.2;fillStrokeColor=#dddddd;strokeWidth=0;strokeColor=#82b366;fillColor=#d5e8d4;" vertex="1" parent="1">
          <mxGeometry x="80" y="1000" width="159" height="80" as="geometry" />
        </mxCell>
        <mxCell id="oXTzVpbmEas0PoUD19BF-31" value="&lt;font face=&quot;Courier New&quot;&gt;i&lt;/font&gt;" style="text;html=1;align=center;verticalAlign=middle;whiteSpace=wrap;rounded=0;" vertex="1" parent="1">
          <mxGeometry x="40" y="985" width="40" height="30" as="geometry" />
        </mxCell>
        <mxCell id="oXTzVpbmEas0PoUD19BF-32" value="&lt;font face=&quot;Courier New&quot;&gt;j&lt;/font&gt;" style="text;html=1;align=center;verticalAlign=middle;whiteSpace=wrap;rounded=0;" vertex="1" parent="1">
          <mxGeometry x="140" y="1080" width="40" height="30" as="geometry" />
        </mxCell>
        <mxCell id="oXTzVpbmEas0PoUD19BF-33" value="" style="verticalLabelPosition=bottom;verticalAlign=top;html=1;shape=mxgraph.basic.patternFillRect;fillStyle=grid;step=5;fillStrokeWidth=0.2;fillStrokeColor=#dddddd;strokeWidth=0;strokeColor=#b85450;fillColor=#f8cecc;" vertex="1" parent="1">
          <mxGeometry x="160" y="920" width="80" height="80" as="geometry" />
        </mxCell>
        <mxCell id="oXTzVpbmEas0PoUD19BF-34" value="" style="verticalLabelPosition=bottom;verticalAlign=top;html=1;shape=mxgraph.basic.patternFillRect;fillStyle=grid;step=5;fillStrokeWidth=0.2;fillStrokeColor=#dddddd;strokeWidth=0;strokeColor=none;fillColor=#dae8fc;" vertex="1" parent="1">
          <mxGeometry x="80" y="920" width="80" height="80" as="geometry" />
        </mxCell>
      </root>
    </mxGraphModel>
  </diagram>
</mxfile>
